<?xml version="1.0" encoding="UTF-8"?>
<svg id="Layer_1" data-name="Layer 1" xmlns="http://www.w3.org/2000/svg" viewBox="0 0 453.08 207.95">
  <path d="M283.18,43.72c0-.35,0-.72-.02-1.07l-19.39-.74-30.72-1.16,11.13-13.88c-.47-.47-.31-.31-.78-.78l-14.17,11.37-2.13-24.56h-1.1l-2.13,24.56-14.16-11.36c-.47.47-.31.31-.78.78l11.13,13.88-30.74,1.16c.94-19.75,17.25-35.46,37.22-35.46,16.05,0,29.73,10.15,34.97,24.37h19.15c-7.13-17.85-28.67-30.81-54.12-30.81-31.27,0-56.62,19.58-56.62,43.72,0,.36,0,.72.02,1.08l19.38.73,30.73,1.17-11.13,13.87c.47.47.31.31.78.78l14.16-11.36,2.13,24.57h1.1l2.13-24.57,14.17,11.37c.47-.47.31-.31.78-.78l-11.13-13.87,30.72-1.16c-.95,19.74-17.25,35.45-37.23,35.45-16.05,0-29.73-10.15-34.97-24.37h-19.14c7.12,17.85,28.65,30.82,54.11,30.82,31.28,0,56.64-19.57,56.64-43.73Z"/>
  <path d="M218.37,128.84c0,2.7-2.21,4.91-4.91,4.91h-.08v.03h-84.76c-2.7,0-4.91-2.21-4.91-4.91v-18.7h-37.4v29.36c0,2.71-2.21,4.91-4.91,4.91h-12.97v6.78h12.92c6.49,0,11.77-5.25,11.77-11.77v-22.54h23.82v11.87c0,6.49,5.25,11.77,11.77,11.77h84.68c6.49,0,11.77-5.25,11.77-11.77v-18.65h-6.78v18.7Z"/>
  <path d="M447.39,110.16v18.7c0,2.7-1.83,4.91-4.08,4.91h-11.83v-20.12l-5.63,1.29v18.83h-13.05v-16.86l-5.63,1.29v15.57h-83.37v-34.3h-5.63v41.1h125.14c5.39,0,9.78-5.25,9.78-11.77v-18.65h-5.7Z"/>
  <path d="M264.05,123.46h-18.31v27.79h6.83v-20.93h41.87c3.31,0,6.15-1.18,8.48-3.55,2.36-2.34,3.52-5.15,3.52-8.48s-1.18-6.12-3.52-8.46c-2.34-2.36-5.17-3.55-8.48-3.55v.05h-30.39v17.12ZM270.83,113.21h23.59c1.42,0,2.63.5,3.65,1.5,1,1.02,1.5,2.23,1.5,3.62s-.5,2.63-1.5,3.65v-.03c-1.03,1-2.23,1.5-3.65,1.5h-23.59v-10.24Z"/>
  <rect x="197.31" y="147.63" width="7.25" height="7.25" transform="translate(-48.1 186.38) rotate(-45)"/>
  <rect x="113.48" y="147.59" width="7.25" height="7.25" transform="translate(-72.63 127.09) rotate(-45)"/>
  <rect x="100.98" y="147.6" width="7.25" height="7.25" transform="translate(-76.3 118.29) rotate(-45.01)"/>
  <path d="M11.77,151.24h46.52v-51.77h-6.83v44.91H11.77c-2.7,0-4.91-2.21-4.91-4.91v-14.74H0v14.71c0,6.51,5.25,11.79,11.77,11.79Z"/>
  <path d="M25.95,183.94h-.03v-.03h-13.95c-1.42,0-2.63-.5-3.62-1.5-1.02-1.03-1.52-2.23-1.52-3.65s.5-2.6,1.52-3.63c1-1,2.21-1.5,3.62-1.5h24.24v-6.85H11.98c-3.28,0-6.12,1.18-8.48,3.55-2.34,2.34-3.49,5.15-3.49,8.46s1.16,6.15,3.49,8.48c2.36,2.36,5.17,3.55,8.48,3.55h13.95c1.42,0,2.63.5,3.65,1.5,1,1.02,1.5,2.23,1.5,3.65s-.5,2.63-1.5,3.62c-1.02,1.03-2.23,1.52-3.65,1.52H1.73v6.83h24.22c3.31,0,6.15-1.16,8.48-3.49,2.36-2.36,3.55-5.17,3.55-8.48s-1.18-6.15-3.55-8.48c-2.34-2.36-5.15-3.55-8.48-3.55Z"/>
  <polygon points="72.62 183.92 48.38 183.92 48.38 166.82 41.55 166.82 41.55 207.9 48.38 207.9 48.38 190.8 72.62 190.8 72.62 207.9 79.48 207.9 79.48 166.82 72.62 166.82 72.62 183.92"/>
  <polygon points="204 189.09 189.79 166.82 182.86 166.82 182.86 207.9 189.71 207.9 189.71 179.32 204 202.07 218.29 179.32 218.29 207.9 225.14 207.9 225.14 166.82 218.08 166.82 204 189.09"/>
  <path d="M271.53,166.77v.05h-25.92v41.1h6.83v-17.12h19.09c3.31,0,6.15-1.18,8.48-3.55,2.36-2.34,3.52-5.15,3.52-8.48s-1.18-6.12-3.52-8.46c-2.34-2.36-5.17-3.55-8.48-3.55ZM275.18,182.45v-.03c-1.03,1-2.23,1.5-3.65,1.5h-19.09v-10.24h19.09c1.42,0,2.63.5,3.65,1.5,1,1.02,1.5,2.23,1.5,3.62s-.5,2.63-1.5,3.65Z"/>
  <polygon points="287.15 207.9 325.08 207.9 325.08 201.07 293.98 201.07 293.98 190.8 325.08 190.8 325.08 183.92 293.98 183.92 293.98 173.67 325.08 173.67 325.08 166.82 287.15 166.82 287.15 207.9"/>
  <path d="M416.93,178.77c0-3.28-1.18-6.12-3.52-8.46-2.34-2.36-5.17-3.55-8.48-3.55h-25.92v41.1h6.83v-17.12h10.53c3.78,0,7.01,1.34,9.69,4.02,2.68,2.68,4.02,5.91,4.02,9.69v3.41h6.85v-3.41c0-5.94-2.18-10.95-6.54-15.02,1.97-1.03,3.55-2.47,4.73-4.33v.03c1.21-1.94,1.81-4.04,1.81-6.36ZM408.58,182.45v-.03c-1.03,1-2.23,1.5-3.65,1.5h-19.09v-10.24h19.09c1.42,0,2.63.5,3.65,1.5,1,1.02,1.5,2.23,1.5,3.62s-.5,2.63-1.5,3.65Z"/>
  <polygon points="428.14 166.82 421.32 166.82 421.32 207.9 453.04 207.9 453.04 201.07 428.14 201.07 428.14 166.82"/>
  <path d="M102.38,166.79l-19.99,41.1h7.62l3.78-7.8h25.27l3.78,7.8h7.62l-19.99-41.1h-8.09ZM97.15,193.24l9.3-19.12,9.3,19.12h-18.6Z"/>
  <path d="M151.84,166.79l-19.99,41.1h7.62l3.78-7.8h25.27l3.78,7.8h7.62l-19.99-41.1h-8.09ZM146.61,193.24l9.3-19.12,9.3,19.12h-18.6Z"/>
  <path d="M347.98,166.79l-19.99,41.1h7.62l3.78-7.8h25.27l3.78,7.8h7.62l-19.99-41.1h-8.09ZM342.76,193.24l9.3-19.12,9.3,19.12h-18.6Z"/>
  <rect x="420.36" y="91.07" width="7.26" height="7.26" transform="translate(57.22 327.55) rotate(-45)"/>
  <rect x="427.39" y="99.87" width="7.26" height="7.26" transform="translate(53.06 335.09) rotate(-45)"/>
  <rect x="413.33" y="99.87" width="7.26" height="7.26" transform="translate(48.94 325.14) rotate(-45)"/>
</svg>